# xmcd CD database file
#
# Track frame offsets:
#	150
#	24244
#	45460
#	72093
#	101039
#	122705
#	141758
#	164427
#	181599
#	200681
#	217028
#
# Disc length: 3160 seconds
#
# Revision: 0
# Processed by: cddbd v1.5.2PL0 Copyright (c) Steve Scherf et al.
# Submitted via: CDex 1.51
#
DISCID=980c560b
DTITLE=Los Angeles - Neverland
DYEAR=2009
DGENRE=Rhythmic Soul
TTITLE0=Neverland
TTITLE1=Nothing to Hide
TTITLE2=City Of Angels
TTITLE3=Promises
TTITLE4=Wait For You
TTITLE5=Nowhere To Hide
TTITLE6=Tonight Tonight
TTITLE7=Higher Love
TTITLE8=Living Inside
TTITLE9=Welcome To My Life
TTITLE10=Paradise
EXTD=YEAR: 2009
EXTT0=
EXTT1=
EXTT2=
EXTT3=
EXTT4=
EXTT5=
EXTT6=
EXTT7=
EXTT8=
EXTT9=
EXTT10=
PLAYORDER=
